<?xml version="1.0" encoding="utf-8"?>
<!-- Uploaded to: SVG Repo, www.svgrepo.com, Generator: SVG Repo Mixer Tools -->
<svg width="800px" height="800px" viewBox="0 0 1024 1024" class="icon"  version="1.1" xmlns="http://www.w3.org/2000/svg"><path d="M577.7 778.5S404.5 635.8 382.6 438.6 498.3 64.1 498.3 64.1 671.5 206.8 693.4 404c22 197.3-115.7 374.5-115.7 374.5z" fill="#9ED5E4" /><path d="M577.7 792c-3.1 0-6.2-1.1-8.6-3.1-1.8-1.5-45-37.4-91.5-98.2-27.3-35.8-50-72.8-67.5-110.1-22-46.8-35.8-94.1-40.9-140.6-5.2-46.5-2.1-95.7 9.1-146.2 8.9-40.2 22.9-81.3 41.7-122.2 32-69.6 66.3-114.1 67.7-115.9 2.2-2.9 5.6-4.8 9.2-5.2 3.6-0.4 7.3 0.7 10.1 3 1.8 1.5 45 37.4 91.5 98.2 27.3 35.8 50 72.8 67.5 110.1 22 46.8 35.8 94.1 40.9 140.6 5.2 46.5 2.1 95.7-9.1 146.2-8.9 40.2-22.9 81.3-41.7 122.2-32 69.6-66.3 114.1-67.7 115.9-2.2 2.9-5.6 4.8-9.2 5.2-0.5 0.1-1 0.1-1.5 0.1zM500.6 84.2c-12 17.3-34.9 52.8-56.3 99.5-17.9 39.1-31.3 78.3-39.7 116.5-10.5 47.4-13.3 93.5-8.5 136.9 4.8 43.5 17.8 88 38.5 132.1 16.7 35.5 38.4 70.9 64.6 105.1 31 40.7 60.9 70 76.3 84.1 12-17.3 34.9-52.8 56.3-99.5 17.9-39.1 31.3-78.3 39.7-116.5 10.5-47.5 13.3-93.5 8.5-136.9-4.8-43.4-17.7-87.7-38.3-131.7-16.6-35.4-38.3-70.8-64.3-105-31.2-40.8-61.3-70.4-76.8-84.6z" fill="#154B8B" /><path d="M899.4 308.5s-185.3 2.7-301.2 123.4c-44 45.8-71.6 102-89 154.1-17.4-52.1-45.1-108.3-89-154.1-116-120.7-301.3-123.4-301.3-123.4s2.6 192.9 118.5 313.6c74.7 77.8 178.3 106.6 242.4 117.2-0.2 4 58.7 4 58.6 0 64.2-10.6 167.7-39.4 242.4-117.2 116-120.7 118.6-313.6 118.6-313.6z" fill="#FCFCFC" /><path d="M509.2 755.8c-25 0-31.9-2.2-34.7-3.7-41.5-7.1-80.8-18.4-117.1-33.7-51.6-21.8-95.2-51-129.7-86.9-27.5-28.6-51-63.4-69.9-103.5-15-31.9-27.2-67.1-36.2-104.8-15.3-64-16.1-112.5-16.2-114.5 0-3.7 1.4-7.2 4-9.8 2.6-2.6 6.1-4 9.8-4 2 0 48.7 0.9 110.3 16.9 57.2 14.8 138.4 46.1 200.5 110.7 32.3 33.6 58.9 75.5 79.3 124.7 20.4-49.2 46.9-91 79.3-124.7 27.5-28.6 61-53.1 99.6-72.9 30.7-15.7 64.6-28.4 100.9-37.8 61.7-16 108.4-16.9 110.3-16.9h0.2c3.6 0 7 1.4 9.6 4 2.6 2.6 4 6.1 4 9.8 0 2-0.9 50.5-16.2 114.5-14.2 59.4-44.2 143.8-106.1 208.3-34.5 35.9-78.1 65.1-129.7 86.9-36.2 15.3-75.6 26.6-117.1 33.7-3.1 1.5-9.9 3.7-34.9 3.7zM493.4 738c0.1 0.6 0.1 1.2 0 1.9 0.1-0.6 0.1-1.3 0-1.9z m31.6 0c-0.1 0.6-0.1 1.2 0 1.9-0.1-0.6-0.1-1.2 0-1.9z m-38.1-10.3c8.6 1.4 35.9 1.4 44.5 0 1.4-0.9 3.1-1.5 4.8-1.8 40.5-6.7 79-17.7 114.2-32.5 48.2-20.3 88.8-47.5 120.7-80.7 57.8-60.1 85.9-139.7 99.3-195.8 9.8-40.9 13.4-75.5 14.7-94-18 1.4-51.2 5.2-90.2 15.4-53.6 14-129.5 43.2-187 103.1-36.8 38.3-65.7 88.5-86 149-1.8 5.5-7 9.3-12.9 9.3-5.8 0-11-3.7-12.9-9.3-20.2-60.5-49.1-110.7-86-149-57.5-59.9-133.4-89.1-187-103.1-39-10.2-72.1-14-90.1-15.4 1.3 18.7 5 53.6 14.8 94.7 13.4 55.9 41.6 135.2 99.2 195.2 31.9 33.2 72.5 60.4 120.7 80.7 35.2 14.9 73.7 25.8 114.2 32.5 2 0.2 3.6 0.8 5 1.7z" fill="#154B8B" /><path d="M485.9 755.8c-3.6 0-7-1.4-9.6-4-2.6-2.6-4-6.1-4-9.8 0-2 0.9-50.5 16.2-114.5 14.2-59.4 44.2-143.8 106.1-208.3 62.1-64.6 143.3-95.9 200.5-110.7 61.7-16 108.4-16.9 110.3-16.9 3.7-0.1 7.2 1.4 9.8 4 2.6 2.6 4 6.1 4 9.8 0 2-0.9 50.5-16.2 114.5-14.2 59.4-44.2 143.8-106.1 208.3-62.1 64.6-143.3 95.9-200.5 110.7-61.7 16-108.4 16.9-110.3 16.9h-0.2z m405.5-436.2c-18 1.4-51.2 5.2-90.1 15.4-53.6 14-129.5 43.2-187 103.1-57.6 60-85.7 139.2-99.2 195.2-9.9 41.1-13.5 76-14.8 94.7 18-1.4 51.2-5.2 90.1-15.4 53.6-14 129.5-43.2 187-103.1 57.6-60 85.7-139.2 99.2-195.2 9.8-41.1 13.5-76 14.8-94.7z" fill="#154B8B" /><path d="M981.1 459.3s-224.4 3.2-364.7 143.5C563.1 656 529.6 721.4 508.5 782c-21.1-60.6-54.5-126-107.8-179.2C260.4 462.4 36 459.3 36 459.3S39.2 683.6 179.5 824C270 914.5 395.4 947.9 473 960.3c-0.2 4.6 71.1 4.6 70.9 0 77.7-12.4 203-45.8 293.5-136.3 140.5-140.4 143.7-364.7 143.7-364.7z" fill="#FCFCFC" /><path d="M508.5 977.3c-30.5 0-37.9-2.6-41-4.2-50.1-8.2-97.7-21.4-141.5-39.1-62.1-25.2-114.6-58.9-156.1-100.4-33.1-33.1-61.4-73.4-84.2-119.8-18.1-37-32.9-77.9-43.7-121.5C23.5 518 22.5 461.8 22.4 459.4c-0.1-3.7 1.4-7.2 4-9.8 2.6-2.6 6.1-4 9.8-4 2.4 0 58.5 1 132.8 19.5 43.7 10.9 84.6 25.6 121.5 43.7 46.4 22.8 86.7 51.2 119.8 84.2 40.4 40.4 73.3 91 98.2 150.7 24.9-59.8 57.8-110.4 98.2-150.7 33.1-33.1 73.4-61.4 119.8-84.2 36.9-18.1 77.8-32.9 121.5-43.7 74.3-18.5 130.5-19.5 132.8-19.5 3.6-0.1 7.2 1.4 9.8 4 2.6 2.6 4 6.1 4 9.8 0 2.4-1 58.5-19.5 132.8-10.9 43.7-25.6 84.6-43.7 121.5-22.8 46.4-51.2 86.7-84.2 119.8C805.6 875 753.1 908.8 691 934c-43.8 17.7-91.4 30.9-141.5 39.1-3 1.6-10.5 4.2-41 4.2zM486.6 960v0z m43.8 0.1v0z m-50-11.3c10.2 1.8 46.1 1.8 56.3 0 1.5-1 3.3-1.7 5.2-2 49.3-7.8 96.1-20.6 139-38 58.7-23.8 108.2-55.6 147.1-94.5 31-31 57.6-68.8 79.1-112.6 17.3-35.2 31.4-74.3 41.8-116.1 12.4-49.6 16.6-91.3 18-112.2-21 1.4-63.1 5.7-112.9 18.2-41.7 10.4-80.7 24.5-115.8 41.8-43.6 21.5-81.3 48-112.2 78.9-44.8 44.8-80 103.4-104.6 174.1-1.9 5.5-7 9.1-12.8 9.1-5.8 0-10.9-3.7-12.8-9.1-24.6-70.7-59.8-129.2-104.6-174.1-31-31-68.8-57.6-112.6-79.1-35.2-17.3-74.3-31.4-116.1-41.8-49.6-12.4-91.3-16.6-112.2-18 1.4 21 5.7 63.1 18.2 112.9C78.9 628 93 667 110.3 702.1c21.5 43.6 48 81.3 78.9 112.2 38.9 38.9 88.4 70.7 147.1 94.5 42.9 17.4 89.7 30.2 139 38 1.8 0.4 3.5 1.1 5.1 2z" fill="#154B8B" /><path d="M480.4 977.3c-3.6 0-7-1.4-9.6-4-2.6-2.6-4-6.1-4-9.8 0-2.4 1-58.5 19.5-132.8 10.9-43.7 25.6-84.6 43.7-121.5 22.8-46.4 51.2-86.7 84.2-119.8 33.1-33.1 73.4-61.4 119.8-84.2 36.9-18.1 77.8-32.9 121.5-43.7C929.8 443 986 442 988.3 442c3.7-0.1 7.2 1.4 9.8 4 2.6 2.6 4 6.1 4 9.8 0 2.4-1 58.5-19.5 132.8C971.8 632.2 957 673 938.9 710c-22.8 46.4-51.2 86.7-84.2 119.8-33.1 33.1-73.4 61.4-119.8 84.2-36.9 18.2-77.8 32.9-121.5 43.7-74.3 18.5-130.5 19.5-132.8 19.5-0.1 0.1-0.2 0.1-0.2 0.1z m493.9-507.5c-21 1.4-63.1 5.7-112.9 18.2-41.7 10.4-80.7 24.5-115.8 41.8-43.6 21.5-81.3 48-112.2 78.9-30.9 30.9-57.4 68.6-78.9 112.2-17.3 35.1-31.4 74.1-41.8 115.8-12.5 49.8-16.7 91.8-18.2 112.8 21-1.4 63.1-5.7 112.8-18.2 41.7-10.4 80.7-24.5 115.8-41.8 43.6-21.5 81.3-48 112.2-78.9 31-31 57.6-68.8 79.1-112.6 17.3-35.2 31.4-74.3 41.8-116.1 12.5-49.6 16.7-91.2 18.1-112.1z" fill="#154B8B" /></svg>